# xmcd
#
# Track frame offsets:
#	150
#	18545
#	39110
#	47155
#	60020
#	72570
#	87587
#	98492
#	114450
#	128397
#	144457
#	158835
#	176787
#	190895
#	207645
#	221152
#	233657
#	252180
#	267540
#	282830
#
# Disc length: 4032 seconds
#
# Revision: 0
# Processed by: cddbd v1.5.1PL0 Copyright (c) Steve Scherf et al.
# Submitted via: dBpowerAMP V4.0
#
DISCID=200fbe14
DTITLE=Renato Teixeira - Maxximum
DYEAR=2000
DGENRE=Latin
TTITLE0=Romaria
TTITLE1=Sentimental eu Fico
TTITLE2=Vira (No meu Quintal)
TTITLE3=Agulha no Palheiro
TTITLE4=Arraial
TTITLE5=Alforge
TTITLE6=Olhos Profundos
TTITLE7=Amora
TTITLE8=Cavalo Bravo
TTITLE9=Sina de Violeiro
TTITLE10=Frete
TTITLE11=Morro da Imaculada
TTITLE12=Mato Dentro
TTITLE13=Vida Malvada
TTITLE14=Invernada
TTITLE15=O maior Misterio
TTITLE16=Uma Velha Canção do Povo
TTITLE17=Vicente
TTITLE18=Tutu com Torresmo
TTITLE19=Irmãos da Lua
EXTD=
EXTT0=
EXTT1=
EXTT2=
EXTT3=
EXTT4=
EXTT5=
EXTT6=
EXTT7=
EXTT8=
EXTT9=
EXTT10=
EXTT11=
EXTT12=
EXTT13=
EXTT14=
EXTT15=
EXTT16=
EXTT17=
EXTT18=
EXTT19=
PLAYORDER=
